<?xml version="1.0" encoding="utf-8"?>
<!-- Generator: Adobe Illustrator 16.0.0, SVG Export Plug-In . SVG Version: 6.00 Build 0)  -->
<!DOCTYPE svg PUBLIC "-//W3C//DTD SVG 1.1//EN" "http://www.w3.org/Graphics/SVG/1.1/DTD/svg11.dtd">
<svg version="1.1" id="Layer_1" xmlns="http://www.w3.org/2000/svg" xmlns:xlink="http://www.w3.org/1999/xlink" x="0px" y="0px"
	 width="150px" height="150px" viewBox="0 0 150 150" enable-background="new 0 0 150 150" xml:space="preserve">
<g>
	<defs>
		<filter id="Adobe_OpacityMaskFilter" filterUnits="userSpaceOnUse" x="-3.604" y="129.117" width="159.205" height="23.025">
			<feColorMatrix  type="matrix" values="1 0 0 0 0  0 1 0 0 0  0 0 1 0 0  0 0 0 1 0"/>
		</filter>
	</defs>
	<mask maskUnits="userSpaceOnUse" x="-3.604" y="129.117" width="159.205" height="23.025" id="SVGID_1_">
		<g filter="url(#Adobe_OpacityMaskFilter)">
			
				<radialGradient id="SVGID_2_" cx="536.7334" cy="111.6934" r="48.1768" gradientTransform="matrix(-1.6526 0.0029 -0.0124 0.2389 964.3927 112.393)" gradientUnits="userSpaceOnUse">
				<stop  offset="0" style="stop-color:#FFFFFF"/>
				<stop  offset="0.1213" style="stop-color:#D1D1D1"/>
				<stop  offset="0.3023" style="stop-color:#939392"/>
				<stop  offset="0.4757" style="stop-color:#5F5F5E"/>
				<stop  offset="0.6368" style="stop-color:#363635"/>
				<stop  offset="0.7828" style="stop-color:#191918"/>
				<stop  offset="0.9086" style="stop-color:#070706"/>
				<stop  offset="1" style="stop-color:#010100"/>
			</radialGradient>
			<path fill="url(#SVGID_2_)" d="M-3.6,140.777c0.375-6.353,36.294-11.58,80.267-11.659c43.951-0.076,79.266,5.018,78.933,11.378
				c-0.166,6.353-36.14,11.565-80.164,11.646C31.399,152.216-4.018,147.133-3.6,140.777z"/>
		</g>
	</mask>
	
		<radialGradient id="SVGID_3_" cx="306.999" cy="-310.6299" r="56.8731" gradientTransform="matrix(1 0 0 -1 -231 -170)" gradientUnits="userSpaceOnUse">
		<stop  offset="0.073" style="stop-color:#59C9C4"/>
		<stop  offset="0.2265" style="stop-color:#52C5C4"/>
		<stop  offset="0.4445" style="stop-color:#40BBC3"/>
		<stop  offset="0.6997" style="stop-color:#21AAC1"/>
		<stop  offset="0.9282" style="stop-color:#0098BF"/>
	</radialGradient>
	<path display="none" mask="url(#SVGID_1_)" fill="url(#SVGID_3_)" d="M-3.6,140.777c0.375-6.353,36.294-11.58,80.267-11.659
		c43.951-0.076,79.266,5.018,78.933,11.378c-0.166,6.353-36.14,11.565-80.164,11.646C31.399,152.216-4.018,147.133-3.6,140.777z"/>
	<circle fill="#EAEAEA" cx="75.999" cy="74.45" r="71.695"/>
	
		<radialGradient id="SVGID_4_" cx="346.3916" cy="-200.3301" r="102.7049" gradientTransform="matrix(1 0 0 -1 -231 -170)" gradientUnits="userSpaceOnUse">
		<stop  offset="0.073" style="stop-color:#59C9C4"/>
		<stop  offset="0.2265" style="stop-color:#52C5C4"/>
		<stop  offset="0.4445" style="stop-color:#40BBC3"/>
		<stop  offset="0.6997" style="stop-color:#21AAC1"/>
		<stop  offset="0.9282" style="stop-color:#0098BF"/>
	</radialGradient>
	<path fill="url(#SVGID_4_)" d="M142.179,74.451c0,36.547-29.63,66.179-66.18,66.179c-36.549,0-66.18-29.63-66.18-66.179
		c0-9.691,2.08-18.893,5.822-27.182C26.009,24.279,49.142,8.271,76,8.271c26.857,0,49.99,16.009,60.357,38.999
		C140.101,55.558,142.179,64.76,142.179,74.451z"/>
	<path opacity="0.1" fill="#FFFFFF" enable-background="new    " d="M136.357,47.269c-10.368,22.991-33.5,39-60.357,39
		c-26.858,0-49.99-16.009-60.358-38.999c10.367-22.991,33.5-39,60.358-39C102.857,8.271,125.989,24.279,136.357,47.269z"/>
	<path fill="#FFFFFF" d="M103.304,58.038c0,0,5.383-4.358,5.811-7.947c0,0-3.677,2.649-9.146,3.503c0,0-5.041-6.238-14.441-4.017
		c-9.4,2.222-11.366,12.733-10.254,16.921c0,0-16.323,0.256-29.653-14.87c0,0-6.494,10.854,4.7,19.228c0,0-5.371-0.341-6.574-1.708
		c0,0-0.519,11.364,11.7,14.186c0,0-2.905,1.024-6.665,0.597c0,0,3.161,9.398,13.501,9.656c0,0-9.399,7.775-21.534,6.066
		c0,0,12.786,9.422,30.247,5.697c0.832-0.178,1.675-0.386,2.528-0.625c11.064-3.362,20.634-10.54,25.936-20.944
		c0.35-0.676,0.692-1.375,1.021-2.101c2.298-5.069,3.951-11.333,3.592-18.601c0,0,5.468-3.845,7.177-7.264
		C111.25,55.816,107.745,57.438,103.304,58.038z"/>
</g>
</svg>
